<svg width="185" height="140" viewBox="0 0 185 140" fill="none" xmlns="http://www.w3.org/2000/svg">
<circle cx="2.4502" cy="2.25" r="2.25" fill="#84E9FF"/>
<circle cx="2.4502" cy="74.25" r="2.25" fill="#84E9FF"/>
<circle cx="2.4502" cy="38.25" r="2.25" fill="#84E9FF"/>
<circle cx="2.4502" cy="110.25" r="2.25" fill="#84E9FF"/>
<circle cx="2.4502" cy="20.25" r="2.25" fill="#84E9FF"/>
<circle cx="2.4502" cy="92.25" r="2.25" fill="#84E9FF"/>
<circle cx="2.4502" cy="56.25" r="2.25" fill="#84E9FF"/>
<circle cx="2.4502" cy="128.25" r="2.25" fill="#84E9FF"/>
<circle cx="11.4502" cy="11.25" r="2.25" fill="#84E9FF"/>
<circle cx="11.4502" cy="83.25" r="2.25" fill="#84E9FF"/>
<circle cx="11.4502" cy="47.25" r="2.25" fill="#84E9FF"/>
<circle cx="11.4502" cy="119.25" r="2.25" fill="#84E9FF"/>
<circle cx="11.4502" cy="29.25" r="2.25" fill="#84E9FF"/>
<circle cx="11.4502" cy="101.25" r="2.25" fill="#84E9FF"/>
<circle cx="11.4502" cy="65.25" r="2.25" fill="#84E9FF"/>
<circle cx="11.4502" cy="137.25" r="2.25" fill="#84E9FF"/>
<circle cx="74.4502" cy="2.25" r="2.25" fill="#84E9FF"/>
<circle cx="74.4502" cy="74.25" r="2.25" fill="#84E9FF"/>
<circle cx="74.4502" cy="38.25" r="2.25" fill="#84E9FF"/>
<circle cx="74.4502" cy="110.25" r="2.25" fill="#84E9FF"/>
<circle cx="74.4502" cy="20.25" r="2.25" fill="#84E9FF"/>
<circle cx="74.4502" cy="92.25" r="2.25" fill="#84E9FF"/>
<circle cx="74.4502" cy="56.25" r="2.25" fill="#84E9FF"/>
<circle cx="74.4502" cy="128.25" r="2.25" fill="#84E9FF"/>
<circle cx="83.4502" cy="11.25" r="2.25" fill="#84E9FF"/>
<circle cx="83.4502" cy="83.25" r="2.25" fill="#84E9FF"/>
<circle cx="83.4502" cy="47.25" r="2.25" fill="#84E9FF"/>
<circle cx="83.4502" cy="119.25" r="2.25" fill="#84E9FF"/>
<circle cx="83.4502" cy="29.25" r="2.25" fill="#84E9FF"/>
<circle cx="83.4502" cy="101.25" r="2.25" fill="#84E9FF"/>
<circle cx="83.4502" cy="65.25" r="2.25" fill="#84E9FF"/>
<circle cx="83.4502" cy="137.25" r="2.25" fill="#84E9FF"/>
<circle cx="38.4502" cy="2.25" r="2.25" fill="#84E9FF"/>
<circle cx="38.4502" cy="74.25" r="2.25" fill="#84E9FF"/>
<circle cx="38.4502" cy="38.25" r="2.25" fill="#84E9FF"/>
<circle cx="38.4502" cy="110.25" r="2.25" fill="#84E9FF"/>
<circle cx="38.4502" cy="20.25" r="2.25" fill="#84E9FF"/>
<circle cx="38.4502" cy="92.25" r="2.25" fill="#84E9FF"/>
<circle cx="38.4502" cy="56.25" r="2.25" fill="#84E9FF"/>
<circle cx="38.4502" cy="128.25" r="2.25" fill="#84E9FF"/>
<circle cx="47.4502" cy="11.25" r="2.25" fill="#84E9FF"/>
<circle cx="47.4502" cy="83.25" r="2.25" fill="#84E9FF"/>
<circle cx="47.4502" cy="47.25" r="2.25" fill="#84E9FF"/>
<circle cx="47.4502" cy="119.25" r="2.25" fill="#84E9FF"/>
<circle cx="47.4502" cy="29.25" r="2.25" fill="#84E9FF"/>
<circle cx="47.4502" cy="101.25" r="2.25" fill="#84E9FF"/>
<circle cx="47.4502" cy="65.25" r="2.25" fill="#84E9FF"/>
<circle cx="47.4502" cy="137.25" r="2.25" fill="#84E9FF"/>
<circle cx="110.45" cy="2.25" r="2.25" fill="#84E9FF"/>
<circle cx="146.45" cy="2.25" r="2.25" fill="#84E9FF"/>
<circle cx="110.45" cy="74.25" r="2.25" fill="#84E9FF"/>
<circle cx="146.45" cy="74.25" r="2.25" fill="#84E9FF"/>
<circle cx="110.45" cy="38.25" r="2.25" fill="#84E9FF"/>
<circle cx="146.45" cy="38.25" r="2.25" fill="#84E9FF"/>
<circle cx="110.45" cy="110.25" r="2.25" fill="#84E9FF"/>
<circle cx="146.45" cy="110.25" r="2.25" fill="#84E9FF"/>
<circle cx="110.45" cy="20.25" r="2.25" fill="#84E9FF"/>
<circle cx="146.45" cy="20.25" r="2.25" fill="#84E9FF"/>
<circle cx="110.45" cy="92.25" r="2.25" fill="#84E9FF"/>
<circle cx="146.45" cy="92.25" r="2.25" fill="#84E9FF"/>
<circle cx="110.45" cy="56.25" r="2.25" fill="#84E9FF"/>
<circle cx="146.45" cy="56.25" r="2.25" fill="#84E9FF"/>
<circle cx="110.45" cy="128.25" r="2.25" fill="#84E9FF"/>
<circle cx="146.45" cy="128.25" r="2.25" fill="#84E9FF"/>
<circle cx="119.45" cy="11.25" r="2.25" fill="#84E9FF"/>
<circle cx="155.45" cy="11.25" r="2.25" fill="#84E9FF"/>
<circle cx="173.45" cy="11.25" r="2.25" fill="#84E9FF"/>
<circle cx="119.45" cy="83.25" r="2.25" fill="#84E9FF"/>
<circle cx="155.45" cy="83.25" r="2.25" fill="#84E9FF"/>
<circle cx="173.45" cy="83.25" r="2.25" fill="#84E9FF"/>
<circle cx="119.45" cy="47.25" r="2.25" fill="#84E9FF"/>
<circle cx="155.45" cy="47.25" r="2.25" fill="#84E9FF"/>
<circle cx="173.45" cy="47.25" r="2.25" fill="#84E9FF"/>
<circle cx="119.45" cy="119.25" r="2.25" fill="#84E9FF"/>
<circle cx="155.45" cy="119.25" r="2.25" fill="#84E9FF"/>
<circle cx="173.45" cy="119.25" r="2.25" fill="#84E9FF"/>
<circle cx="119.45" cy="29.25" r="2.25" fill="#84E9FF"/>
<circle cx="155.45" cy="29.25" r="2.25" fill="#84E9FF"/>
<circle cx="173.45" cy="29.25" r="2.25" fill="#84E9FF"/>
<circle cx="119.45" cy="101.25" r="2.25" fill="#84E9FF"/>
<circle cx="155.45" cy="101.25" r="2.25" fill="#84E9FF"/>
<circle cx="173.45" cy="101.25" r="2.25" fill="#84E9FF"/>
<circle cx="119.45" cy="65.25" r="2.25" fill="#84E9FF"/>
<circle cx="155.45" cy="65.25" r="2.25" fill="#84E9FF"/>
<circle cx="173.45" cy="65.25" r="2.25" fill="#84E9FF"/>
<circle cx="119.45" cy="137.25" r="2.25" fill="#84E9FF"/>
<circle cx="155.45" cy="137.25" r="2.25" fill="#84E9FF"/>
<circle cx="173.45" cy="137.25" r="2.25" fill="#84E9FF"/>
<circle cx="20.4502" cy="2.25" r="2.25" fill="#84E9FF"/>
<circle cx="20.4502" cy="74.25" r="2.25" fill="#84E9FF"/>
<circle cx="20.4502" cy="38.25" r="2.25" fill="#84E9FF"/>
<circle cx="20.4502" cy="110.25" r="2.25" fill="#84E9FF"/>
<circle cx="20.4502" cy="20.25" r="2.25" fill="#84E9FF"/>
<circle cx="20.4502" cy="92.25" r="2.25" fill="#84E9FF"/>
<circle cx="20.4502" cy="56.25" r="2.25" fill="#84E9FF"/>
<circle cx="20.4502" cy="128.25" r="2.25" fill="#84E9FF"/>
<circle cx="29.4502" cy="11.25" r="2.25" fill="#84E9FF"/>
<circle cx="29.4502" cy="83.25" r="2.25" fill="#84E9FF"/>
<circle cx="29.4502" cy="47.25" r="2.25" fill="#84E9FF"/>
<circle cx="29.4502" cy="119.25" r="2.25" fill="#84E9FF"/>
<circle cx="29.4502" cy="29.25" r="2.25" fill="#84E9FF"/>
<circle cx="29.4502" cy="101.25" r="2.25" fill="#84E9FF"/>
<circle cx="29.4502" cy="65.25" r="2.25" fill="#84E9FF"/>
<circle cx="29.4502" cy="137.25" r="2.25" fill="#84E9FF"/>
<circle cx="92.4502" cy="2.25" r="2.25" fill="#84E9FF"/>
<circle cx="92.4502" cy="74.25" r="2.25" fill="#84E9FF"/>
<circle cx="92.4502" cy="38.25" r="2.25" fill="#84E9FF"/>
<circle cx="92.4502" cy="110.25" r="2.25" fill="#84E9FF"/>
<circle cx="92.4502" cy="20.25" r="2.25" fill="#84E9FF"/>
<circle cx="92.4502" cy="92.25" r="2.25" fill="#84E9FF"/>
<circle cx="92.4502" cy="56.25" r="2.25" fill="#84E9FF"/>
<circle cx="92.4502" cy="128.25" r="2.25" fill="#84E9FF"/>
<circle cx="101.45" cy="11.25" r="2.25" fill="#84E9FF"/>
<circle cx="137.45" cy="11.25" r="2.25" fill="#84E9FF"/>
<circle cx="101.45" cy="83.25" r="2.25" fill="#84E9FF"/>
<circle cx="137.45" cy="83.25" r="2.25" fill="#84E9FF"/>
<circle cx="101.45" cy="47.25" r="2.25" fill="#84E9FF"/>
<circle cx="137.45" cy="47.25" r="2.25" fill="#84E9FF"/>
<circle cx="101.45" cy="119.25" r="2.25" fill="#84E9FF"/>
<circle cx="137.45" cy="119.25" r="2.25" fill="#84E9FF"/>
<circle cx="101.45" cy="29.25" r="2.25" fill="#84E9FF"/>
<circle cx="137.45" cy="29.25" r="2.25" fill="#84E9FF"/>
<circle cx="101.45" cy="101.25" r="2.25" fill="#84E9FF"/>
<circle cx="137.45" cy="101.25" r="2.25" fill="#84E9FF"/>
<circle cx="101.45" cy="65.25" r="2.25" fill="#84E9FF"/>
<circle cx="137.45" cy="65.25" r="2.25" fill="#84E9FF"/>
<circle cx="101.45" cy="137.25" r="2.25" fill="#84E9FF"/>
<circle cx="137.45" cy="137.25" r="2.25" fill="#84E9FF"/>
<circle cx="56.4502" cy="2.25" r="2.25" fill="#84E9FF"/>
<circle cx="56.4502" cy="74.25" r="2.25" fill="#84E9FF"/>
<circle cx="56.4502" cy="38.25" r="2.25" fill="#84E9FF"/>
<circle cx="56.4502" cy="110.25" r="2.25" fill="#84E9FF"/>
<circle cx="56.4502" cy="20.25" r="2.25" fill="#84E9FF"/>
<circle cx="56.4502" cy="92.25" r="2.25" fill="#84E9FF"/>
<circle cx="56.4502" cy="56.25" r="2.25" fill="#84E9FF"/>
<circle cx="56.4502" cy="128.25" r="2.25" fill="#84E9FF"/>
<circle cx="65.4502" cy="11.25" r="2.25" fill="#84E9FF"/>
<circle cx="65.4502" cy="83.25" r="2.25" fill="#84E9FF"/>
<circle cx="65.4502" cy="47.25" r="2.25" fill="#84E9FF"/>
<circle cx="65.4502" cy="119.25" r="2.25" fill="#84E9FF"/>
<circle cx="65.4502" cy="29.25" r="2.25" fill="#84E9FF"/>
<circle cx="65.4502" cy="101.25" r="2.25" fill="#84E9FF"/>
<circle cx="65.4502" cy="65.25" r="2.25" fill="#84E9FF"/>
<circle cx="65.4502" cy="137.25" r="2.25" fill="#84E9FF"/>
<circle cx="128.45" cy="2.25" r="2.25" fill="#84E9FF"/>
<circle cx="164.45" cy="2.25" r="2.25" fill="#84E9FF"/>
<circle cx="182.45" cy="2.25" r="2.25" fill="#84E9FF"/>
<circle cx="128.45" cy="74.25" r="2.25" fill="#84E9FF"/>
<circle cx="164.45" cy="74.25" r="2.25" fill="#84E9FF"/>
<circle cx="182.45" cy="74.25" r="2.25" fill="#84E9FF"/>
<circle cx="128.45" cy="38.25" r="2.25" fill="#84E9FF"/>
<circle cx="164.45" cy="38.25" r="2.25" fill="#84E9FF"/>
<circle cx="182.45" cy="38.25" r="2.25" fill="#84E9FF"/>
<circle cx="128.45" cy="110.25" r="2.25" fill="#84E9FF"/>
<circle cx="164.45" cy="110.25" r="2.25" fill="#84E9FF"/>
<circle cx="182.45" cy="110.25" r="2.25" fill="#84E9FF"/>
<circle cx="128.45" cy="20.25" r="2.25" fill="#84E9FF"/>
<circle cx="164.45" cy="20.25" r="2.25" fill="#84E9FF"/>
<circle cx="182.45" cy="20.25" r="2.25" fill="#84E9FF"/>
<circle cx="128.45" cy="92.25" r="2.25" fill="#84E9FF"/>
<circle cx="164.45" cy="92.25" r="2.25" fill="#84E9FF"/>
<circle cx="182.45" cy="92.25" r="2.25" fill="#84E9FF"/>
<circle cx="128.45" cy="56.25" r="2.25" fill="#84E9FF"/>
<circle cx="164.45" cy="56.25" r="2.25" fill="#84E9FF"/>
<circle cx="182.45" cy="56.25" r="2.25" fill="#84E9FF"/>
<circle cx="128.45" cy="128.25" r="2.25" fill="#84E9FF"/>
<circle cx="164.45" cy="128.25" r="2.25" fill="#84E9FF"/>
<circle cx="182.45" cy="128.25" r="2.25" fill="#84E9FF"/>
</svg>
