<svg width="64" height="64" viewBox="0 0 64 64" fill="none" xmlns="http://www.w3.org/2000/svg">
<rect width="64" height="64" rx="32" fill="url(#paint0_linear_281_9296)"/>
<path d="M17.887 39.0889L19.5501 37.4679C20.9164 36.1362 23.1035 36.1637 24.4359 37.5293L30.0789 43.313L28.5191 44.8167C27.0727 46.2111 24.7711 46.1735 23.371 44.7326L17.887 39.0889Z" fill="#84E9FF"/>
<path d="M34.0512 20.5982L35.701 19.0283C37.0772 17.7189 39.2522 17.7657 40.5709 19.1329L46.2071 24.977L44.6982 26.4229C43.2447 27.8156 40.9378 27.7678 39.5433 26.316L34.0512 20.5982Z" fill="#84E9FF"/>
<path d="M26.414 19.8399C26.8712 19.3629 27.3918 18.9511 27.9613 18.6161C28.4627 18.3212 29.0482 18.2019 29.6251 18.2771L30.2043 18.3527C30.6939 18.4165 31.1714 18.5556 31.6188 18.7644C32.123 18.9997 32.5781 19.3301 32.9578 19.7369L33.727 20.561L26.335 28.337H18.271L26.414 19.8399Z" fill="#84E9FF"/>
<path d="M37.6747 44.0547C37.2211 44.5182 36.708 44.9196 36.149 45.2484C35.6372 45.5495 35.0395 45.6713 34.4506 45.5945L33.7324 45.5008C33.3464 45.4505 32.9678 45.3537 32.605 45.2126C31.8332 44.9124 31.1631 44.3983 30.6734 43.7305L30.3672 43.313L37.7592 35.729H45.8232L37.6747 44.0547Z" fill="#84E9FF"/>
<path d="M26.7966 36.9553C27 37.1609 27.2292 37.3392 27.4785 37.4859C28.2928 37.9649 29.2437 38.1586 30.1805 38.0364L30.3619 38.0128C30.7479 37.9624 31.1264 37.8657 31.4892 37.7246C32.261 37.4244 32.9311 36.9102 33.4208 36.2425L33.727 35.825L26.335 28.337H18.271L26.7966 36.9553Z" fill="#84E9FF"/>
<path d="M37.3039 26.9318C37.0964 26.7175 36.8609 26.5323 36.6038 26.381C35.7972 25.9066 34.8554 25.7146 33.9274 25.8357L33.7324 25.8611C33.3464 25.9115 32.9678 26.0082 32.605 26.1493C31.8332 26.4495 31.1631 26.9637 30.6734 27.6314L30.3672 28.0489L37.7592 35.7289H45.8232L37.3039 26.9318Z" fill="#84E9FF"/>
<defs>
<linearGradient id="paint0_linear_281_9296" x1="0" y1="32" x2="64" y2="32" gradientUnits="userSpaceOnUse">
<stop stop-color="#001926"/>
<stop offset="1" stop-color="#000D13"/>
</linearGradient>
</defs>
</svg>
