<svg width="57" height="62" viewBox="0 0 57 62" fill="none" xmlns="http://www.w3.org/2000/svg">
<path d="M0.0239063 44.928L3.35014 41.686C6.08284 39.0225 10.457 39.0775 13.1219 41.8088L24.4079 53.3761L21.2882 56.3836C18.3954 59.1724 13.7922 59.0972 10.9919 56.2154L0.0239063 44.928Z" fill="#84E9FF"/>
<path d="M32.3521 7.94643L35.6518 4.80679C38.4042 2.18799 42.7542 2.28143 45.3915 5.016L56.664 16.704L53.6461 19.5959C50.7392 22.3813 46.1254 22.2856 43.3365 19.3821L32.3521 7.94643Z" fill="#84E9FF"/>
<path d="M17.078 6.43002C17.9923 5.47598 19.0336 4.65237 20.1726 3.98239C21.1755 3.39246 22.3464 3.15385 23.5002 3.30434L24.6587 3.45545C25.6377 3.58315 26.5928 3.86131 27.4875 4.27885C28.496 4.74948 29.4063 5.41032 30.1656 6.22391L31.704 7.87214L16.92 23.4241H0.791992L17.078 6.43002Z" fill="#84E9FF"/>
<path d="M39.5989 54.8595C38.6916 55.7865 37.6656 56.5893 36.5476 57.247C35.5239 57.8492 34.3285 58.0927 33.1508 57.9391L31.7143 57.7518C30.9423 57.6511 30.1852 57.4575 29.4596 57.1753C27.916 56.575 26.5757 55.5467 25.5963 54.2111L24.984 53.3761L39.768 38.2081H55.896L39.5989 54.8595Z" fill="#84E9FF"/>
<path d="M17.8432 40.6606C18.25 41.0719 18.7084 41.4286 19.207 41.7219C20.8357 42.6799 22.7373 43.0674 24.611 42.823L24.9737 42.7757C25.7457 42.675 26.5028 42.4814 27.2284 42.1992C28.772 41.5989 30.1123 40.5706 31.0917 39.235L31.704 38.4001L16.92 23.4241H0.791992L17.8432 40.6606Z" fill="#84E9FF"/>
<path d="M38.8573 20.6137C38.4423 20.1852 37.9713 19.8147 37.4571 19.5122C35.8439 18.5632 33.9603 18.1794 32.1043 18.4215L31.7143 18.4724C30.9422 18.5731 30.1852 18.7666 29.4595 19.0488C27.9159 19.6491 26.5757 20.6774 25.5963 22.013L24.984 22.848L39.768 38.208H55.896L38.8573 20.6137Z" fill="#84E9FF"/>
</svg>
