<svg width="178" height="193" viewBox="0 0 178 193" fill="none" xmlns="http://www.w3.org/2000/svg">
<path d="M0.074707 140.4L10.4692 130.269C19.0089 121.945 32.6781 122.117 41.0059 130.652L76.2747 166.8L66.5257 176.199C57.4856 184.913 43.1005 184.679 34.3498 175.673L0.074707 140.4Z" fill="black"/>
<path d="M101.1 24.8325L111.412 15.0211C120.013 6.83739 133.606 7.12939 141.848 15.6749L177.075 52.2001L167.644 61.237C158.56 69.9415 144.142 69.6426 135.426 60.569L101.1 24.8325Z" fill="black"/>
<path d="M53.3685 20.0933C56.2256 17.112 59.4797 14.5382 63.0389 12.4445C66.1729 10.601 69.8323 9.85532 73.4378 10.3256L77.058 10.7978C80.1175 11.1969 83.1021 12.0661 85.8981 13.3709C89.0496 14.8417 91.8943 16.9068 94.2673 19.4493L99.0746 24.6L52.8746 73.2H2.47461L53.3685 20.0933Z" fill="black"/>
<path d="M123.746 171.436C120.911 174.333 117.705 176.841 114.211 178.897C111.012 180.778 107.276 181.54 103.596 181.059L99.1067 180.474C96.6941 180.159 94.3283 179.554 92.0607 178.673C87.237 176.797 83.0487 173.583 79.988 169.409L78.0746 166.8L124.275 119.4H174.675L123.746 171.436Z" fill="black"/>
<path d="M55.7596 127.064C57.0309 128.349 58.4635 129.464 60.0216 130.38C65.1111 133.374 71.0538 134.585 76.909 133.821L78.0425 133.674C80.4551 133.359 82.8208 132.754 85.0885 131.872C89.9122 129.996 94.1005 126.783 97.1612 122.609L99.0746 120L52.8746 73.1999H2.47461L55.7596 127.064Z" fill="black"/>
<path d="M121.429 64.4178C120.132 63.0786 118.66 61.9207 117.053 60.9755C112.012 58.01 106.125 56.8105 100.326 57.567L99.1066 57.726C96.694 58.0407 94.3282 58.6455 92.0606 59.5274C87.2369 61.4033 83.0486 64.6169 79.9879 68.7905L78.0745 71.3998L124.274 119.4H174.675L121.429 64.4178Z" fill="black"/>
</svg>
