<svg xmlns="http://www.w3.org/2000/svg" width="75" height="75" viewBox="0 0 75 75" fill="none">
<path d="M28.125 37.4016V15.625C28.125 13.1386 29.1127 10.754 30.8709 8.99587C32.629 7.23772 35.0136 6.25 37.5 6.25C39.9864 6.25 42.371 7.23772 44.1291 8.99587C45.8873 10.754 46.875 13.1386 46.875 15.625V18.7594M46.875 37.5047V59.375C46.875 61.8614 45.8873 64.246 44.1291 66.0041C42.371 67.7623 39.9864 68.75 37.5 68.75C35.0136 68.75 32.629 67.7623 30.8709 66.0041C29.1127 64.246 28.125 61.8614 28.125 59.375V56.2031" stroke="black" stroke-width="4.16667" stroke-linecap="round"/>
<path d="M37.5 46.875H15.6C10.4375 46.875 6.25 42.6781 6.25 37.5C6.25 32.3219 10.4375 28.125 15.6 28.125H18.7328M37.5 28.125H59.3578C61.8464 28.1229 64.234 29.1094 65.9953 30.8675C67.7566 32.6257 68.7475 35.0114 68.75 37.5C68.75 42.6781 64.5453 46.875 59.3578 46.875H56.3531" stroke="black" stroke-width="4.16667" stroke-linecap="round"/>
</svg>