<svg width="400" height="400" viewBox="0 0 400 400" fill="none" xmlns="http://www.w3.org/2000/svg">
<path d="M233.333 33.333H166.666C112.013 33.333 84.6857 33.333 65.3148 46.8967C58.1482 51.9147 51.9147 58.1482 46.8967 65.3148C33.333 84.6857 33.333 112.013 33.333 166.666C33.333 221.32 33.333 248.646 46.8967 268.018C51.9147 275.185 58.1482 281.418 65.3148 286.436C84.6857 300 112.013 300 166.666 300H233.333C287.986 300 315.313 300 334.685 286.436C341.851 281.418 348.085 275.185 353.103 268.018C366.666 248.646 366.666 221.32 366.666 166.666" stroke="black" stroke-width="15" stroke-linecap="round"/>
<path d="M313.825 45.9027C318.793 40.5202 321.277 37.829 323.917 36.2592C330.285 32.4713 338.127 32.3537 344.602 35.9485C347.287 37.4383 349.847 40.0538 354.967 45.2847C360.088 50.5157 362.648 53.1312 364.107 55.8725C367.625 62.4872 367.51 70.4983 363.802 77.0043C362.265 79.7007 359.632 82.2382 354.362 87.313L291.672 147.695C281.687 157.312 276.693 162.121 270.453 164.558C264.213 166.995 257.355 166.816 243.635 166.457L241.77 166.408C237.593 166.299 235.505 166.244 234.29 164.867C233.077 163.489 233.242 161.362 233.573 157.107L233.753 154.797C234.687 142.823 235.153 136.836 237.492 131.455C239.83 126.073 243.863 121.703 251.93 112.963L313.825 45.9027Z" stroke="black" stroke-width="15" stroke-linejoin="round"/>
<path d="M244.262 366.667L237.282 359.685C221.543 343.948 217.642 319.907 227.595 300" stroke="black" stroke-width="15" stroke-linecap="round"/>
<path d="M150.009 366.667L156.99 359.685C172.727 343.948 176.629 319.907 166.675 300" stroke="black" stroke-width="15" stroke-linecap="round"/>
<path d="M116.667 366.667H283.334" stroke="black" stroke-width="15" stroke-linecap="round"/>
</svg>
