<svg xmlns="http://www.w3.org/2000/svg" width="75" height="75" viewBox="0 0 75 75" fill="none">
  <path d="M37.5 61.25V65.9375H46.875V70.625H23.4375V65.9375H32.8125V61.25H0V19.0625H37.5L32.7759 23.75H4.6875V56.5625H65.625V28.4375L70.3125 23.75V61.25H37.5ZM18.75 47.1875C19.4092 47.1875 20.0195 47.0654 20.5811 46.8213C21.1426 46.5771 21.6309 46.2476 22.0459 45.8325C22.4609 45.4175 22.8027 44.917 23.0713 44.3311C23.3398 43.7451 23.4619 43.1348 23.4375 42.5C23.4375 41.3037 23.645 40.1685 24.0601 39.0942C24.4751 38.02 25.061 37.0679 25.8179 36.2378C26.5747 35.4077 27.4536 34.7241 28.4546 34.187C29.4556 33.6499 30.5664 33.3081 31.7871 33.1616L57.8247 7.12402C58.5083 6.44043 59.3018 5.91553 60.2051 5.54932C61.1084 5.18311 62.0361 5 62.9883 5C63.9893 5 64.9292 5.18311 65.8081 5.54932C66.687 5.91553 67.4683 6.44043 68.1519 7.12402C68.8354 7.80762 69.3481 8.57666 69.6899 9.43115C70.0317 10.2856 70.2271 11.25 70.2759 12.3242C70.2759 13.2764 70.0928 14.2041 69.7266 15.1074C69.3604 16.0107 68.8354 16.8042 68.1519 17.4878L42.1143 43.5254C41.9922 44.6973 41.6626 45.7959 41.1255 46.8213C40.5884 47.8467 39.9048 48.7256 39.0747 49.458C38.2446 50.1904 37.2925 50.7764 36.2183 51.2158C35.144 51.6553 34.0088 51.875 32.8125 51.875H9.375V47.1875H18.75ZM62.9883 9.6875C62.2803 9.6875 61.6699 9.94385 61.1572 10.4565L44.8608 26.7529C46.2524 27.8271 47.4854 29.0601 48.5596 30.4517L64.856 14.1553C65.3687 13.6426 65.625 13.0322 65.625 12.3242C65.625 11.5918 65.3687 10.9692 64.856 10.4565C64.3433 9.94385 63.7207 9.6875 62.9883 9.6875ZM38.1592 33.4546C39.6484 34.4312 40.8813 35.6641 41.8579 37.1533L45.2271 33.8208C44.2017 32.356 42.9565 31.1108 41.4917 30.0854L38.1592 33.4546ZM37.5 42.5C37.5 41.8408 37.3779 41.2305 37.1338 40.6689C36.8896 40.1074 36.5601 39.6191 36.145 39.2041C35.73 38.7891 35.2295 38.4473 34.6436 38.1787C34.0576 37.9102 33.4473 37.7881 32.8125 37.8125C32.1533 37.8125 31.543 37.9346 30.9814 38.1787C30.4199 38.4229 29.9316 38.7524 29.5166 39.1675C29.1016 39.5825 28.7598 40.083 28.4912 40.6689C28.2227 41.2549 28.1006 41.8652 28.125 42.5C28.125 44.1602 27.71 45.7227 26.8799 47.1875H32.8125C33.4473 47.1875 34.0454 47.0654 34.6069 46.8213C35.1685 46.5771 35.6689 46.2476 36.1084 45.8325C36.5479 45.4175 36.8896 44.917 37.1338 44.3311C37.3779 43.7451 37.5 43.1348 37.5 42.5Z" fill="black"/>
</svg>