<svg xmlns="http://www.w3.org/2000/svg" width="75" height="75" viewBox="0 0 75 75" fill="none">
<g clip-path="url(#clip0_122_59)">
<path d="M66.7969 9.84381C65.991 9.32247 65.0695 9.00707 64.1132 8.92534C63.1569 8.8436 62.1951 8.99804 61.3125 9.37506L32.3906 20.7657C31.7059 21.0444 30.9736 21.1876 30.2344 21.1876H11.7188C10.1647 21.1876 8.67439 21.8049 7.57555 22.9037C6.4767 24.0026 5.85938 25.4929 5.85938 27.0469V27.5157H0V41.5782H5.85938V42.1876C5.89609 43.7171 6.52959 45.1715 7.62448 46.2402C8.71937 47.3088 10.1888 47.9067 11.7188 47.9063L18.75 62.8126C19.2261 63.8163 19.9757 64.6655 20.9126 65.2625C21.8496 65.8595 22.9359 66.1801 24.0469 66.1876H27C28.5459 66.1752 30.0242 65.5524 31.1129 64.4549C32.2017 63.3574 32.8125 61.8741 32.8125 60.3282V48.4688L61.3125 59.8594C62.0135 60.1384 62.7612 60.2816 63.5156 60.2813C64.6861 60.2624 65.826 59.9042 66.7969 59.2501C67.5679 58.7295 68.2038 58.0328 68.6521 57.2177C69.1004 56.4026 69.3482 55.4924 69.375 54.5626V14.6719C69.3707 13.7181 69.1336 12.7797 68.6843 11.9383C68.235 11.0969 67.5871 10.3779 66.7969 9.84381ZM26.9531 27.0469V42.1876H11.7188V27.0469H26.9531ZM26.9531 60.3282H24L18.2344 47.9063H26.9531V60.3282ZM34.5469 42.8907C33.9903 42.6063 33.41 42.371 32.8125 42.1876V26.7188C33.4043 26.5967 33.9845 26.4242 34.5469 26.2032L63.5156 14.6719V54.4219L34.5469 42.8907ZM69.5156 28.6876V40.4063C71.0696 40.4063 72.56 39.789 73.6588 38.6901C74.7577 37.5913 75.375 36.1009 75.375 34.5469C75.375 32.9929 74.7577 31.5026 73.6588 30.4037C72.56 29.3049 71.0696 28.6876 69.5156 28.6876Z" fill="black"/>
</g>
<defs>
<clipPath id="clip0_122_59">
<rect width="75" height="75" fill="white"/>
</clipPath>
</defs>
</svg>