<svg width="400" height="400" viewBox="0 0 400 400" fill="none" xmlns="http://www.w3.org/2000/svg">
<path d="M300 300.001C336.819 300.001 366.666 240.305 366.666 166.667C366.666 93.0293 336.819 33.334 300 33.334C263.181 33.334 233.333 93.0293 233.333 166.667C233.333 240.305 263.181 300.001 300 300.001Z" stroke="black" stroke-width="15"/>
<path d="M300 33.334C248.281 33.334 141.085 72.9608 79.5172 97.5627C51.3233 108.829 33.333 136.306 33.333 166.667C33.333 197.029 51.3233 224.506 79.5172 235.772C141.085 260.374 248.281 300.001 300 300.001" stroke="black" stroke-width="15"/>
<path d="M183.333 366.667L150.946 348.838C115.683 329.428 95.7756 290.223 100.758 250" stroke="black" stroke-width="15" stroke-linecap="round" stroke-linejoin="round"/>
</svg>
