<svg xmlns="http://www.w3.org/2000/svg" width="75" height="75" viewBox="0 0 75 75" fill="none">
<path d="M70.3125 14.0625V9.375H63.2812V4.6875H58.5938V9.375H56.25C53.6648 9.375 51.5625 11.4797 51.5625 14.0625V18.75C51.5625 21.3352 53.6648 23.4375 56.25 23.4375H65.625V28.125H51.5625V32.8125H58.5938V37.5H63.2812V32.8125H65.625C68.2102 32.8125 70.3125 30.7102 70.3125 28.125V23.4375C70.3125 20.8547 68.2102 18.75 65.625 18.75H56.25V14.0625H70.3125ZM56.25 46.875V51.5625H62.3109L53.9062 59.9672L48.5344 54.593C48.0955 54.154 47.5004 53.907 46.8797 53.9062H46.875C46.5676 53.9062 46.2632 53.9669 45.9792 54.0847C45.6953 54.2026 45.4374 54.3753 45.2203 54.593L32.8125 66.9984L36.1266 70.3125L46.8773 59.5641L52.2492 64.9383C52.6887 65.3777 53.2848 65.6245 53.9062 65.6245C54.5277 65.6245 55.1238 65.3777 55.5633 64.9383L65.625 54.8766V60.9375H70.3125V46.875H56.25ZM9.375 70.3125H4.6875V58.5938C4.6875 49.5469 12.0469 42.1875 21.0938 42.1875H35.1562C39.818 42.1875 44.2734 44.1797 47.3836 47.6555L43.8914 50.782C42.7915 49.5538 41.4451 48.5711 39.9401 47.8979C38.435 47.2248 36.805 46.8762 35.1562 46.875H21.0938C14.632 46.875 9.375 52.132 9.375 58.5938V70.3125ZM28.125 37.5C32.4762 37.5 36.6492 35.7715 39.726 32.6947C42.8027 29.618 44.5312 25.445 44.5312 21.0938C44.5312 16.7425 42.8027 12.5695 39.726 9.49278C36.6492 6.41601 32.4762 4.6875 28.125 4.6875C23.7738 4.6875 19.6008 6.41601 16.524 9.49278C13.4473 12.5695 11.7188 16.7425 11.7188 21.0938C11.7188 25.445 13.4473 29.618 16.524 32.6947C19.6008 35.7715 23.7738 37.5 28.125 37.5ZM28.125 9.375C31.233 9.375 34.2137 10.6097 36.4114 12.8073C38.6091 15.005 39.8438 17.9857 39.8438 21.0938C39.8438 24.2018 38.6091 27.1825 36.4114 29.3802C34.2137 31.5779 31.233 32.8125 28.125 32.8125C25.017 32.8125 22.0363 31.5779 19.8386 29.3802C17.6409 27.1825 16.4062 24.2018 16.4062 21.0938C16.4062 17.9857 17.6409 15.005 19.8386 12.8073C22.0363 10.6097 25.017 9.375 28.125 9.375Z" fill="black"/>
</svg>