<svg xmlns="http://www.w3.org/2000/svg" width="75" height="75" viewBox="0 0 75 75" fill="none">
<path d="M66.1984 12.5H8.80156C7.39237 12.5 6.25 13.6424 6.25 15.0516V59.9484C6.25 61.3576 7.39237 62.5 8.80156 62.5H66.1984C67.6076 62.5 68.75 61.3576 68.75 59.9484V15.0516C68.75 13.6424 67.6076 12.5 66.1984 12.5Z" stroke="black" stroke-width="4.16667"/>
<path d="M25 29.6063C21.875 25 16.4031 28.0282 16.7953 32.7625C17.1875 37.5 23.4375 37.5 23.8266 42.2375C24.2187 46.9719 18.75 50 15.625 45.3922M40.625 28.125H34.375V48.4375H40.625M34.375 39.0625H40.625" stroke="black" stroke-width="4.16667" stroke-linecap="round" stroke-linejoin="round"/>
<path d="M59.375 32.8125C59.375 30.2237 57.2763 28.125 54.6875 28.125C52.0987 28.125 50 30.2237 50 32.8125V43.75C50 46.3388 52.0987 48.4375 54.6875 48.4375C57.2763 48.4375 59.375 46.3388 59.375 43.75V32.8125Z" stroke="black" stroke-width="4.16667" stroke-linecap="round" stroke-linejoin="round"/>
</svg>