<svg width="400" height="400" viewBox="0 0 400 400" fill="none" xmlns="http://www.w3.org/2000/svg">
<path d="M33.333 200C33.333 292.046 107.952 366.666 200 366.666C282.43 366.666 350.883 306.826 364.288 228.216C365.851 219.045 366.666 209.618 366.666 200C366.666 118.643 308.373 50.9005 231.276 36.2628C221.145 34.3395 210.69 33.333 200 33.333C154.495 33.333 113.249 51.5698 83.1725 81.1333C52.4105 111.371 33.333 153.457 33.333 200Z" stroke="black" stroke-width="15" stroke-linejoin="round"/>
<line x1="46" y1="258.5" x2="358" y2="258.5" stroke="black" stroke-width="15"/>
<line x1="46" y1="141.5" x2="353" y2="141.5" stroke="black" stroke-width="15"/>
<path d="M184.5 31L148.347 108.08C120.892 166.617 120.969 234.347 148.558 292.821L184.5 369" stroke="black" stroke-width="15"/>
<path d="M215.5 31L251.653 108.08C279.108 166.617 279.031 234.347 251.442 292.821L215.5 369" stroke="black" stroke-width="15"/>
</svg>
